<?xml version="1.0" encoding="iso-8859-1"?>
<!-- Generator: Adobe Illustrator 19.0.0, SVG Export Plug-In . SVG Version: 6.00 Build 0)  -->
<svg xmlns="http://www.w3.org/2000/svg" xmlns:xlink="http://www.w3.org/1999/xlink" version="1.1" id="Capa_1" x="0px" y="0px" viewBox="0 0 512 512" style="enable-background:new 0 0 512 512;" xml:space="preserve">
<path style="fill:#E3E5E5;" d="M504.5,383.011c0,14.638-11.867,26.506-26.506,26.506H34.008c-14.64,0-26.508-11.868-26.508-26.506  V128.989c0-14.639,11.868-26.507,26.508-26.507h443.986c14.639,0,26.506,11.868,26.506,26.507L504.5,383.011L504.5,383.011z"/>
<path style="fill:#D6D6D6;" d="M27.502,383.011V128.989c0-14.639,11.868-26.507,26.508-26.507H34.008  c-14.64,0-26.508,11.868-26.508,26.507v254.022c0,14.638,11.868,26.506,26.508,26.506h20.001  C39.369,409.517,27.502,397.649,27.502,383.011z"/>
<rect x="7.5" y="171.69" style="fill:#474B63;" width="497" height="76.575"/>
<rect x="7.5" y="171.69" style="fill:#3E4356;" width="20.001" height="76.575"/>
<g>
	<path style="fill:#FFA92C;" d="M342.288,344.5c0,6.627-5.372,12.001-12.001,12.001h-31.131c-6.628,0-12.001-5.373-12.001-12.001   v-31.131c0-6.627,5.372-12.001,12.001-12.001h31.131c6.628,0,12.001,5.373,12.001,12.001V344.5z"/>
	<path style="fill:#FFA92C;" d="M431.164,344.5c0,6.627-5.372,12.001-12.001,12.001h-31.131c-6.628,0-12.001-5.373-12.001-12.001   v-31.131c0-6.627,5.372-12.001,12.001-12.001h31.131c6.628,0,12.001,5.373,12.001,12.001V344.5z"/>
</g>
<g>
	<path style="fill:#F79719;" d="M314.721,344.5v-31.131c0-6.627,5.372-12.001,12.001-12.001h-27.566   c-6.628,0-12.001,5.373-12.001,12.001V344.5c0,6.627,5.372,12.001,12.001,12.001h27.566   C320.093,356.501,314.721,351.127,314.721,344.5z"/>
	<path style="fill:#F79719;" d="M403.597,344.5v-31.131c0-6.627,5.372-12.001,12.001-12.001h-27.566   c-6.628,0-12.001,5.373-12.001,12.001V344.5c0,6.627,5.372,12.001,12.001,12.001h27.566   C408.97,356.501,403.597,351.127,403.597,344.5z"/>
</g>
<path d="M239.704,328.934c0-4.142-3.358-7.5-7.5-7.5H66.938c-4.142,0-7.5,3.358-7.5,7.5s3.358,7.5,7.5,7.5h165.266  C236.346,336.434,239.704,333.076,239.704,328.934z"/>
<path d="M66.938,349c-4.142,0-7.5,3.358-7.5,7.5s3.358,7.5,7.5,7.5h106.986c4.142,0,7.5-3.358,7.5-7.5s-3.358-7.5-7.5-7.5H66.938z"/>
<path d="M232.203,293.868H66.938c-4.142,0-7.5,3.358-7.5,7.5c0,4.142,3.358,7.5,7.5,7.5h165.266c4.142,0,7.5-3.358,7.5-7.5  C239.705,297.226,236.346,293.868,232.203,293.868z"/>
<path d="M299.156,293.868c-10.753,0-19.501,8.749-19.501,19.501V344.5c0,10.753,8.749,19.501,19.501,19.501h31.131  c10.753,0,19.501-8.749,19.501-19.501v-31.131c0-10.753-8.749-19.501-19.501-19.501H299.156z M334.787,313.369V344.5  c0,2.481-2.019,4.5-4.5,4.5h-31.131c-2.481,0-4.5-2.019-4.5-4.5v-31.131c0-2.481,2.019-4.5,4.5-4.5h31.131  C332.768,308.869,334.787,310.887,334.787,313.369z"/>
<path d="M388.033,293.868c-10.753,0-19.501,8.749-19.501,19.501V344.5c0,10.753,8.749,19.501,19.501,19.501h31.131  c10.753,0,19.501-8.749,19.501-19.501v-31.131c0-10.753-8.749-19.501-19.501-19.501H388.033z M423.664,313.369V344.5  c0,2.481-2.019,4.5-4.5,4.5h-31.131c-2.481,0-4.5-2.019-4.5-4.5v-31.131c0-2.481,2.019-4.5,4.5-4.5h31.131  C421.645,308.869,423.664,310.887,423.664,313.369z"/>
<path d="M477.994,94.983H34.008C15.256,94.983,0,110.238,0,128.989c0,11.999,0,244.701,0,254.022  c0,18.751,15.256,34.006,34.008,34.006h443.986c18.751,0,34.006-15.255,34.006-34.006V356.5c0-4.142-3.358-7.5-7.5-7.5  s-7.5,3.358-7.5,7.5v26.512c0,10.48-8.526,19.005-19.005,19.005H34.008c-10.481,0-19.007-8.526-19.007-19.005V255.77h481.998v65.729  c0,4.142,3.358,7.5,7.5,7.5s7.5-3.358,7.5-7.5c0-1.609,0-186.795,0-192.509C512,110.238,496.745,94.983,477.994,94.983z   M15.001,240.769v-61.574h51.937c4.142,0,7.5-3.358,7.5-7.5c0-4.142-3.358-7.5-7.5-7.5H15.001V128.99  c0-10.48,8.527-19.006,19.007-19.006h443.986c10.48,0,19.005,8.526,19.005,19.006v35.204H101.94c-4.142,0-7.5,3.358-7.5,7.5  c0,4.142,3.358,7.5,7.5,7.5h395.059v61.574H15.001z"/>
<g>
</g>
<g>
</g>
<g>
</g>
<g>
</g>
<g>
</g>
<g>
</g>
<g>
</g>
<g>
</g>
<g>
</g>
<g>
</g>
<g>
</g>
<g>
</g>
<g>
</g>
<g>
</g>
<g>
</g>
</svg>
