<?xml version="1.0" encoding="iso-8859-1"?>
<!-- Generator: Adobe Illustrator 19.0.0, SVG Export Plug-In . SVG Version: 6.00 Build 0)  -->
<svg version="1.1" id="Layer_1" xmlns="http://www.w3.org/2000/svg" xmlns:xlink="http://www.w3.org/1999/xlink" x="0px" y="0px"
	 viewBox="0 0 512 512" style="enable-background:new 0 0 512 512;" xml:space="preserve">
<path style="fill:#FE7D49;" d="M503.916,126.653v258.695c0,23.812-19.304,43.116-43.116,43.116H51.2
	c-23.812,0-43.116-19.304-43.116-43.116V126.653c0-23.812,19.304-43.116,43.116-43.116h409.6
	C484.612,83.537,503.916,102.841,503.916,126.653z"/>
<path style="fill:#FE5A3A;" d="M503.916,180.547v204.8c0,23.812-19.304,43.116-43.116,43.116H51.2
	c-23.812,0-43.116-19.304-43.116-43.116v-204.8H503.916z"/>
<path style="fill:#FED76E;" d="M158.246,223.663H73.502c-6.364,0-11.523-5.159-11.523-11.523v-63.186
	c0-6.364,5.159-11.523,11.523-11.523h84.743c6.364,0,11.523,5.159,11.523,11.523v63.185
	C169.768,218.504,164.61,223.663,158.246,223.663z"/>
<path style="fill:#FEAF50;" d="M169.768,180.547v31.593c0,6.364-5.159,11.523-11.523,11.523H73.502
	c-6.364,0-11.523-5.159-11.523-11.523v-31.593H169.768z"/>
<path style="fill:#FEE66B;" d="M121.263,196.716h-10.779c-8.929,0-16.168-7.239-16.168-16.168l0,0
	c0-8.929,7.239-16.168,16.168-16.168h10.779c8.929,0,16.168,7.239,16.168,16.168l0,0
	C137.432,189.477,130.192,196.716,121.263,196.716z"/>
<path d="M134.737,342.232c0,4.466-3.62,8.084-8.084,8.084H61.979c-4.465,0-8.084-3.618-8.084-8.084s3.62-8.084,8.084-8.084h64.674
	C131.117,334.147,134.737,337.766,134.737,342.232z M403.93,192.203c-3.863,2.238-5.18,7.184-2.943,11.047
	c1.499,2.587,4.214,4.032,7.003,4.032c1.375,0,2.769-0.351,4.045-1.091c9.135-5.292,14.81-15.119,14.81-25.645
	c0-10.527-5.675-20.353-14.81-25.645c-3.862-2.239-8.809-0.921-11.048,2.942c-2.238,3.863-0.921,8.81,2.943,11.047
	c4.162,2.411,6.748,6.878,6.748,11.655S408.093,189.791,403.93,192.203z M433.59,136.217c-3.861-2.234-8.809-0.918-11.046,2.947
	c-2.237,3.864-0.917,8.811,2.948,11.046c10.809,6.255,17.523,17.879,17.523,30.337c0,12.457-6.714,24.081-17.523,30.337
	c-3.864,2.237-5.184,7.182-2.947,11.046c1.499,2.589,4.213,4.036,7.004,4.036c1.374,0,2.767-0.35,4.042-1.089
	c15.786-9.137,25.592-26.123,25.592-44.331C459.183,162.338,449.376,145.353,433.59,136.217z M512,126.653v258.695
	c0,28.231-22.969,51.2-51.2,51.2H51.2c-28.231,0-51.2-22.969-51.2-51.2V126.653c0-28.231,22.969-51.2,51.2-51.2h409.6
	C489.031,75.453,512,98.421,512,126.653z M495.832,126.653c0-19.317-15.716-35.032-35.032-35.032H51.2
	c-19.316,0-35.032,15.715-35.032,35.032v258.695c0,19.317,15.716,35.032,35.032,35.032h409.6c19.316,0,35.032-15.715,35.032-35.032
	V126.653z M385.347,188.632h1.078c4.465,0,8.084-3.618,8.084-8.084c0-4.466-3.62-8.084-8.084-8.084h-1.078
	c-4.465,0-8.084,3.618-8.084,8.084C377.263,185.013,380.883,188.632,385.347,188.632z M158.246,231.747H73.502
	c-10.811,0-19.607-8.796-19.607-19.607v-63.186c0-10.811,8.796-19.607,19.607-19.607h84.743c10.811,0,19.607,8.796,19.607,19.607
	v63.185C177.853,222.952,169.057,231.747,158.246,231.747z M161.684,188.632h-17.554c-3.336,9.41-12.328,16.168-22.868,16.168
	h-10.779c-10.54,0-19.531-6.758-22.868-16.168H70.063v23.509c0,1.896,1.542,3.438,3.438,3.438h84.743
	c1.896,0,3.438-1.544,3.438-3.438v-23.509H161.684z M110.484,188.632h10.779c4.458,0,8.084-3.626,8.084-8.084
	s-3.626-8.084-8.084-8.084h-10.779c-4.458,0-8.084,3.626-8.084,8.084S106.026,188.632,110.484,188.632z M161.684,148.954
	c0-1.896-1.542-3.438-3.438-3.438H73.502c-1.896,0-3.438,1.544-3.438,3.438v23.509h17.554c3.336-9.41,12.328-16.168,22.868-16.168
	h10.779c10.54,0,19.531,6.758,22.868,16.168h17.554V148.954z M342.232,334.147h-64.674c-4.465,0-8.084,3.618-8.084,8.084
	s3.62,8.084,8.084,8.084h64.674c4.465,0,8.084-3.618,8.084-8.084S346.696,334.147,342.232,334.147z M450.021,334.147h-64.674
	c-4.465,0-8.084,3.618-8.084,8.084s3.62,8.084,8.084,8.084h64.674c4.465,0,8.084-3.618,8.084-8.084S454.486,334.147,450.021,334.147
	z M234.442,334.147h-64.674c-4.465,0-8.084,3.618-8.084,8.084s3.62,8.084,8.084,8.084h64.674c4.465,0,8.084-3.618,8.084-8.084
	S238.907,334.147,234.442,334.147z"/>
<g>
</g>
<g>
</g>
<g>
</g>
<g>
</g>
<g>
</g>
<g>
</g>
<g>
</g>
<g>
</g>
<g>
</g>
<g>
</g>
<g>
</g>
<g>
</g>
<g>
</g>
<g>
</g>
<g>
</g>
</svg>
